<?xml version="1.0" encoding="UTF-8" standalone="no"?>
<!-- Created with Inkscape (http://www.inkscape.org/) -->

<svg
   xmlns:dc="http://purl.org/dc/elements/1.1/"
   xmlns:cc="http://creativecommons.org/ns#"
   xmlns:rdf="http://www.w3.org/1999/02/22-rdf-syntax-ns#"
   xmlns:svg="http://www.w3.org/2000/svg"
   xmlns="http://www.w3.org/2000/svg"
   version="1.1"
   width="250"
   height="184"
   viewBox="0 0 250 184"
   id="Layer_1"
   xml:space="preserve"><metadata
   id="metadata17779"><rdf:RDF><cc:Work
       rdf:about=""><dc:format>image/svg+xml</dc:format><dc:type
         rdf:resource="http://purl.org/dc/dcmitype/StillImage" /><dc:title></dc:title></cc:Work></rdf:RDF></metadata><defs
   id="defs17777" />
<g
   id="g17723">
	<path
   d="m 245,80.335 -12.811,-2.137 -2.988,1.526 -0.938,-1.587 14.333,-22.537 -11.213,-4.042 -15.582,2.089 C 201.498,24.575 171.45,4.55 136.691,4.55 88.084,4.55 48.681,43.701 48.681,92 c 0,7.31 0.909,14.405 2.608,21.19 l -1.135,3.007 -9.356,-2.152 L 5,122.137 c 3.701,3.851 5.798,9.53 5.739,10.46 0,7.07 -6.928,19.152 1.63,27.72 10.698,10.192 28.68,12.208 41.064,8.247 2.297,-0.735 18.832,-8.28 24.936,-11.077 15.528,13.665 35.948,21.963 58.322,21.963 45.239,0 82.496,-33.916 87.442,-77.554 3.838,-1.025 7.446,-1.973 10.772,-2.832 L 245,80.335 z"
   id="path17725"
   style="fill:#0c2340;fill-opacity:1" />
	<path
   d="m 245,80.335 -12.811,-2.137 -2.988,1.526 -0.938,-1.587 14.333,-22.537 -11.213,-4.042 -15.582,2.089 C 201.498,24.575 171.45,4.55 136.691,4.55 88.084,4.55 48.681,43.701 48.681,92 c 0,7.31 0.909,14.405 2.608,21.19 l -1.135,3.007 -9.356,-2.152 L 5,122.137 c 3.701,3.851 5.798,9.53 5.739,10.46 0,7.07 -6.928,19.152 1.63,27.72 10.698,10.192 28.68,12.208 41.064,8.247 2.297,-0.735 18.832,-8.28 24.936,-11.077 15.528,13.665 35.948,21.963 58.322,21.963 45.239,0 82.496,-33.916 87.442,-77.554 3.838,-1.025 7.446,-1.973 10.772,-2.832 L 245,80.335 z"
   id="path17727"
   style="fill:none;stroke:#ffffff;stroke-width:1.44490004;stroke-miterlimit:10" />
	
	
	
	
	<path
   d="m 150.429,30.346 c -2.167,-0.497 -4.369,-0.888 -6.611,-1.159 l 3.462,5.1 3.149,-3.941 z m 16.915,8.539 6.045,7.614 2.928,-3.414 c -6.284,-5.163 -13.576,-9.137 -21.538,-11.586 l 8.995,11.619 3.57,-4.233 z m 21.773,20.133 0.466,-0.95 c -2.92,-4.583 -6.412,-8.766 -10.379,-12.45 l 4.425,6.141 c 0,-10e-4 2.401,2.824 5.488,7.259 m -76.721,-25.682 4.355,5.549 6.387,-8.832 c -3.711,0.778 -7.3,1.887 -10.742,3.283 m -26.483,20.179 2.727,-0.373 8.998,-10.271 2.404,2.905 8.033,-10.5 C 99.358,39.598 91.786,45.872 85.913,53.515"
   id="path17737"
   style="fill:#f9a01b;fill-opacity:1" />
	<path
   d="m 184.627,97.297 -10.865,3.281 3.165,-7.622 4.606,-3.404 -1.636,-3.215 11.165,-22.239 -39.354,6.034 -8.633,15.708 10.427,-3.572 10.527,-1.719 -4.605,7.728 -4.06,2.644 0.431,4.432 -14.01,26.922 c -0.927,-0.968 -2.346,-2.593 -2.346,-3.631 l 1.338,-19.053 3.16,-4.394 -2.941,-3.863 -0.058,-10.865 4.717,-9.408 -38.158,5.972 1.246,6.896 -6.692,13.117 -4.774,4.768 0.772,4.138 -16.976,39.303 25.616,-10.205 3.974,-10.575 9.725,-3.207 -1.527,10.172 22.875,-8.091 43.627,-13.692 9.603,-16.736 -10.339,4.376 z m -63.285,11.775 -5.411,1.773 6.169,-13.356 -0.758,11.583 z m -35.143,1.281 4.353,-4.946 -1.042,-4.551 11.215,-32.447 8.735,-9.526 -36.647,4.347 6.108,7.194 -13.779,33.384 -4.887,5.224 1.959,3.974 -12.465,36.405 c -2.379,0.826 -6.301,1.809 -7.256,1.051 -1.091,-0.864 -1.819,-1.432 -0.077,-6.544 0,0 4.419,-12.637 4.415,-12.637 0.167,-0.388 7.239,-10.762 7.239,-10.762 l -32.846,8.083 c 0,0 2.883,4.007 2.774,5.735 l -3.457,12.042 c -1.732,7.702 1.635,11.979 5.163,15.151 3.795,3.419 14.906,8.343 29.742,2.461 2.402,-0.949 19.684,-9.008 19.684,-9.008 0,0 -1.635,-2.658 -2.226,-5.551 L 86.199,110.353 z M 230.895,86.012 c -1.995,0.453 -8.713,1.893 -11.188,2.411 l 3.039,-4.967 3.822,-2.724 -1.454,-3.006 13.136,-21.171 -38.757,6.254 -8.799,14.62 9.832,-3.309 8.341,-1.325 -3.896,6.213 -5.801,3.253 1.108,4.788 -12.444,21.858 45.282,-12.76 7.935,-14.156 c 0.001,0.001 -9.914,3.95 -10.156,4.021"
   id="path17739"
   style="fill:#f9a01b;fill-opacity:1" />
	<path
   d="m 78.423,65.347 25.206,-3.266 -5.282,5.083 -11.915,33.853 0.862,3.545 -3.279,3.843 -14.045,40.625 c 0,0 0.42,3.84 1.112,4.591 -3.671,1.644 -12.561,6.08 -16.683,7.718 -13.782,5.466 -23.724,0.827 -26.794,-1.93 -3.78,-3.406 -5.552,-6.766 -4.289,-12.415 0.561,-2.507 0.777,-2.971 1.471,-5.377 0.67,-2.29 1.3,-4.46 1.923,-6.415 0.569,-1.754 -0.431,-3.792 -1.019,-4.765 l 22.491,-5.523 c -0.648,1.091 -3.447,3.739 -4.038,5.399 l -4.422,12.672 c -1.977,5.801 -1.442,7.794 1.008,9.722 3.584,2.819 11.325,-1.22 11.325,-1.22 l 13.216,-38.61 -1.512,-3.452 3.757,-3.886 14.531,-36.067 -3.624,-4.125 z"
   id="path17741"
   style="fill:#ffffff;fill-opacity:1" />
	<path
   d="m 152.465,79.345 17.028,-2.656 -7.534,13.347 -3.563,2.24 0.413,3.106 -11.835,22.888 36.675,-11.372 4.727,-8.04 -4.004,1.849 -15.69,4.377 5.771,-13.581 3.497,-2.613 -1.456,-2.477 9.157,-18.543 c 0,0 -27.919,3.865 -31.83,4.578 l -4.717,8.119 3.361,-1.222 z"
   id="path17743"
   style="fill:#ffffff;fill-opacity:1" />
	<path
   d="m 138.087,80.072 2.875,-5.584 -30.049,4.7 0.802,5.203 -7.926,14.914 -3.553,3.145 0.697,3.578 -14.538,34.034 18.062,-7.196 4.015,-10.682 15.347,-5.055 -1.291,9.583 15.065,-4.884 c 0,0 -1.026,-1.229 -0.912,-2.406 l 1.194,-21.158 2.431,-2.961 -2.154,-2.598 -0.065,-12.633 z m -14.308,31.193 -12.772,4.066 14.238,-30.196 -1.466,26.13 z"
   id="path17745"
   style="fill:#ffffff;fill-opacity:1" />
	<path
   d="m 231.547,88.791 c -4.653,1.056 -17.88,3.824 -17.88,3.824 l 6.519,-10.285 2.923,-2.268 -1.083,-2.376 10.701,-17.261 -31.469,4.989 -4.359,7.184 c 0.231,-0.078 2.288,-0.99 2.52,-1.045 1.829,-0.411 15.88,-2.661 15.88,-2.661 l -8.558,12.47 -3.91,2.427 0.595,2.885 -9.495,17.014 c 0,0 30.232,-8.585 37.328,-10.039 l 3.938,-6.382 c -0.001,0 -2.775,1.328 -3.65,1.524"
   id="path17747"
   style="fill:#ffffff;fill-opacity:1" />
	<path
   d="m 97.16,52.295 18.066,5.753 -10.141,9.95 6.778,-1.003 c 5.507,-5.362 11.369,-11.138 11.369,-11.138 l 2.991,3.259 5.685,-3.518 4.757,-11.009 c 0,0 6.944,9.174 12.052,17.719 l 2.543,-0.325 -6.168,-9.983 2.076,-14.975 4.992,-6.234 c 0.068,1.644 -0.038,4.39 0.164,5.768 l -1.291,1.87 c 1.771,2.547 3.543,4.611 5.324,7.219 l -6.581,7.094 2.658,4.694 5.428,-4.694 8.869,7.271 15.688,-2.001 6.138,2.13 0.56,-1.124 c -3.087,-4.438 -5.485,-7.257 -5.485,-7.257 l -6.738,-9.351 -3.505,4.089 -6.042,-7.617 -3.573,4.238 -11.591,-14.972 -4.903,6.138 -13.176,-19.39 -17.353,23.985 -5.792,-7.378 -10.917,14.272 -2.405,-2.908 -8.997,10.277 2.372,-0.322 6.584,-7.443 -0.436,6.916 z"
   id="path17749"
   style="fill:#ffffff" />
	<path
   d="m 176.758,45.068 0.111,4.371 2.174,3.138 c -0.514,0.375 -0.836,1.418 -1.555,1.6 -2.18,-2.736 -3.272,-4.157 -4.069,-5.2 l 3.339,-3.909 z"
   id="path17751"
   style="fill:#00471b;fill-opacity:1" />
	<path
   d="m 165.315,47.183 c -0.453,-0.577 -0.909,-1.164 -1.365,-1.747 l 3.358,-3.979 c 1.542,7.053 2.109,10.896 3.46,18.004 l -7.346,-5.946 1.893,-6.332 z"
   id="path17753"
   style="fill:#00471b;fill-opacity:1" />
	<path
   d="m 147.171,37.025 4.991,-6.234 c 0.068,1.644 -0.04,4.39 0.162,5.768 l -1.291,1.87 c 1.774,2.547 3.546,4.611 5.327,7.219 l -6.584,7.094 2.658,4.694 5.428,-4.694 8.872,7.271 -15.474,1.971 -6.168,-9.984 2.079,-14.975 z"
   id="path17755"
   style="fill:#00471b;fill-opacity:1" />
	<path
   d="m 134.056,17.739 c -1.263,7.055 -1.915,16.489 -3.18,23.144 l 2.499,3.475 -8.776,6.673 -7.713,-9.556 17.17,-23.736 z"
   id="path17757"
   style="fill:#00471b;fill-opacity:1" />
	<path
   d="m 123.234,55.857 2.99,3.259 5.687,-3.521 4.755,-11.009 c 0,0 6.947,9.177 12.05,17.719 l -7.867,1.006 -1.016,2.239 -5.908,-1.831 -22.061,3.275 c 5.506,-5.361 11.37,-11.137 11.37,-11.137"
   id="path17759"
   style="fill:#00471b;fill-opacity:1" />
	<path
   d="m 110.981,34.16 c -0.18,2.097 0.032,5.38 0.116,7.879 0.527,1.192 1.773,1.88 2.036,2.996 l -7.088,9.983 -5.952,-6.637 10.888,-14.221 z"
   id="path17761"
   style="fill:#00471b;fill-opacity:1" />
	<polygon
   points="97.16,52.295 96.479,52.078 91.012,52.821 97.596,45.378 "
   id="polygon17763"
   style="fill:#00471b;fill-opacity:1" />
	<path
   d="m 98.941,142.144 9.918,-4.047 3.257,-7.536 c 0,0 6.295,4.661 6.342,4.642 22.071,-8.308 48.399,-16.588 48.399,-16.588 0,0 0.142,4.651 -0.297,7.633 -8.116,-0.03 -16.212,4.84 -24.588,9.872 -11.344,6.818 -23.068,13.858 -36.694,10.567 -2.249,-1.353 -6.337,-4.543 -6.337,-4.543"
   id="path17765"
   style="fill:#00471b;fill-opacity:1" />
	<path
   d="m 149.461,153.79 c -8.67,1.942 -17.893,1.963 -27.125,-0.262 -3.738,-0.917 -7.219,-2.069 -10.465,-3.47 11.678,0.121 22.066,-6.121 31.414,-11.75 8.073,-4.846 15.51,-9.315 22.812,-9.429 -0.973,4.632 -4.861,18.778 -16.636,24.911"
   id="path17767"
   style="fill:#00471b;fill-opacity:1" />
	<path
   d="m 156.804,151.648 c 5.72,-5.337 9.974,-13.274 11.854,-22.517 0.002,-0.035 0.015,-0.073 0.02,-0.105 4.026,0.541 8.038,2.555 12.103,6.72 -6.677,7.159 -14.906,12.616 -23.977,15.902"
   id="path17769"
   style="fill:#00471b;fill-opacity:1" />
	<path
   d="m 182.49,133.839 c -4.5,-4.586 -8.94,-6.799 -13.365,-7.408 0.451,-3.173 0.515,-6.115 0.217,-8.603 4.506,-1.416 24.044,-7.313 25.984,-7.879 0.015,-0.003 0.024,-0.005 0.035,-0.011 -2.635,9.097 -7.095,17.173 -12.871,23.901"
   id="path17771"
   style="fill:#00471b;fill-opacity:1" />
	<path
   d="m 156.804,151.648 c 5.72,-5.34 9.976,-13.274 11.854,-22.517 0.005,-0.038 0.015,-0.073 0.02,-0.104 4.026,0.539 8.038,2.55 12.103,6.718 -6.677,7.16 -14.906,12.615 -23.977,15.903 m -7.343,2.142 c -8.67,1.942 -17.89,1.963 -27.124,-0.26 -3.738,-0.919 -7.219,-2.071 -10.468,-3.472 11.682,0.121 22.065,-6.121 31.419,-11.75 8.073,-4.846 15.507,-9.315 22.804,-9.429 -0.968,4.632 -4.859,18.778 -16.631,24.911 m 45.9,-43.849 c -2.636,9.094 -7.096,17.172 -12.871,23.897 -4.5,-4.589 -8.942,-6.799 -13.365,-7.408 0.451,-3.173 0.515,-6.113 0.22,-8.603 -0.826,0.262 -1.655,0.524 -2.487,0.789 0,0.005 0.144,4.651 -0.297,7.63 -8.119,-0.033 -16.215,4.84 -24.591,9.872 -11.341,6.821 -23.064,13.856 -36.689,10.57 -2.214,-1.336 -6.195,-4.433 -6.327,-4.535 -1.54,0.624 -2.64,1.068 -2.65,1.058 7.284,5.954 15.905,10.401 25.532,12.735 33.951,8.217 67.786,-12.707 77.011,-47.019 -1.148,0.334 -2.317,0.675 -3.486,1.014"
   id="path17773"
   style="fill:#ffffff" />
<g
   transform="matrix(6.8295986,0,0,-6.8295986,89.044965,27.994033)"
   id="g21061"><path
     d="m 0,0 c -0.107,0.17 -0.217,0.33 -0.327,0.479 0.063,0.026 0.122,0.054 0.175,0.081 0.054,0.028 0.109,0.06 0.167,0.095 C 0.07,0.689 0.124,0.723 0.175,0.76 0.226,0.796 0.276,0.834 0.324,0.877 0.343,0.83 0.369,0.776 0.4,0.713 0.433,0.651 0.468,0.585 0.506,0.517 0.544,0.45 0.583,0.382 0.622,0.314 0.661,0.246 0.698,0.183 0.732,0.127 l 0.107,-0.174 c 0.058,-0.097 0.115,-0.184 0.169,-0.264 0.054,-0.078 0.112,-0.142 0.174,-0.188 0.062,-0.045 0.131,-0.069 0.207,-0.071 0.076,-0.001 0.164,0.028 0.264,0.09 0.062,0.038 0.115,0.089 0.157,0.156 0.043,0.065 0.061,0.136 0.056,0.211 C 1.861,-0.05 1.847,0.005 1.824,0.055 1.8,0.105 1.771,0.161 1.737,0.221 1.72,0.254 1.701,0.285 1.682,0.317 1.663,0.348 1.644,0.38 1.625,0.411 L 1.51,0.599 C 1.443,0.709 1.37,0.822 1.292,0.941 1.215,1.058 1.128,1.18 1.033,1.309 1.071,1.325 1.108,1.341 1.144,1.355 1.181,1.371 1.216,1.389 1.251,1.409 1.284,1.43 1.314,1.452 1.341,1.475 1.368,1.496 1.394,1.52 1.419,1.546 1.463,1.462 1.512,1.372 1.565,1.275 1.618,1.179 1.67,1.085 1.721,0.994 1.771,0.902 1.819,0.819 1.864,0.742 1.908,0.665 1.944,0.604 1.972,0.559 2.02,0.481 2.062,0.408 2.096,0.344 2.131,0.28 2.159,0.216 2.179,0.155 2.199,0.095 2.212,0.034 2.218,-0.026 2.224,-0.085 2.221,-0.149 2.21,-0.219 2.186,-0.355 2.129,-0.478 2.039,-0.587 1.949,-0.696 1.835,-0.793 1.697,-0.876 1.415,-1.049 1.165,-1.115 0.949,-1.074 0.733,-1.033 0.537,-0.87 0.364,-0.586 0.229,-0.366 0.108,-0.172 0,0"
     id="path21063"
     style="fill:#ffffff;fill-opacity:1;fill-rule:nonzero;stroke:none" /></g><g
   transform="matrix(6.8295986,0,0,-6.8295986,116.04242,12.982572)"
   id="g21065"><path
     d="m 0,0 c -0.091,-0.026 -0.18,-0.055 -0.269,-0.085 -0.001,0.057 -0.008,0.114 -0.021,0.174 -0.006,0.026 -0.014,0.052 -0.024,0.078 -0.01,0.026 -0.021,0.055 -0.033,0.089 0.153,0.017 0.304,0.043 0.452,0.074 0.149,0.031 0.298,0.064 0.448,0.098 0.143,0.033 0.289,0.068 0.438,0.103 0.149,0.037 0.3,0.08 0.454,0.131 C 1.446,0.638 1.449,0.609 1.452,0.578 1.454,0.548 1.46,0.513 1.469,0.476 1.476,0.446 1.484,0.417 1.494,0.39 1.504,0.364 1.514,0.34 1.523,0.322 1.428,0.311 1.335,0.297 1.243,0.282 1.15,0.266 1.056,0.247 0.96,0.225 0.971,0.159 0.986,0.083 1.004,-0.002 1.022,-0.086 1.041,-0.172 1.06,-0.257 l 0.037,-0.162 c 0.026,-0.115 0.051,-0.224 0.075,-0.325 0.024,-0.101 0.047,-0.2 0.071,-0.295 0.022,-0.096 0.046,-0.189 0.07,-0.279 0.025,-0.091 0.052,-0.184 0.08,-0.281 C 1.287,-1.612 1.204,-1.624 1.145,-1.633 1.085,-1.642 1.041,-1.651 1.013,-1.657 0.93,-1.675 0.861,-1.695 0.805,-1.714 0.75,-1.735 0.706,-1.75 0.673,-1.762 0.666,-1.705 0.657,-1.64 0.645,-1.57 0.633,-1.5 0.62,-1.426 0.605,-1.347 0.591,-1.268 0.575,-1.189 0.558,-1.11 0.541,-1.03 0.524,-0.953 0.507,-0.879 l -0.06,0.265 -0.029,0.129 C 0.4,-0.41 0.38,-0.323 0.356,-0.225 0.331,-0.126 0.306,-0.028 0.279,0.071 0.183,0.049 0.09,0.025 0,0"
     id="path21067"
     style="fill:#ffffff;fill-opacity:1;fill-rule:nonzero;stroke:none" /></g><g
   transform="matrix(6.8295986,0,0,-6.8295986,146.78039,18.928415)"
   id="g21069"><path
     d="M 0,0 C 0.021,-0.007 0.043,-0.012 0.065,-0.017 0.087,-0.021 0.109,-0.026 0.131,-0.03 L 0.263,-0.058 0.395,-0.086 C 0.417,-0.09 0.439,-0.095 0.461,-0.1 0.483,-0.104 0.505,-0.107 0.528,-0.11 L 0.416,0.643 0,0 z m -0.368,-0.652 c -0.032,0.015 -0.064,0.029 -0.097,0.04 -0.032,0.012 -0.066,0.023 -0.101,0.03 -0.034,0.007 -0.068,0.012 -0.102,0.014 -0.034,0 -0.066,0 -0.096,0 l 0.26,0.36 c 0.041,0.055 0.086,0.117 0.137,0.19 0.051,0.071 0.104,0.149 0.159,0.23 0.056,0.083 0.114,0.169 0.174,0.258 C 0.027,0.56 0.087,0.649 0.148,0.739 0.182,0.791 0.22,0.85 0.264,0.917 0.307,0.984 0.349,1.05 0.39,1.115 0.43,1.181 0.468,1.24 0.502,1.292 0.536,1.345 0.56,1.381 0.575,1.404 0.607,1.389 0.641,1.375 0.676,1.363 0.711,1.35 0.746,1.339 0.779,1.333 0.815,1.325 0.852,1.321 0.889,1.318 0.926,1.315 0.962,1.314 0.997,1.316 1.005,1.239 1.015,1.148 1.029,1.044 1.042,0.94 1.058,0.831 1.074,0.715 1.091,0.602 1.108,0.485 1.127,0.37 1.146,0.254 1.163,0.147 1.18,0.048 1.2,-0.067 1.218,-0.169 1.233,-0.258 1.249,-0.347 1.265,-0.431 1.279,-0.51 1.294,-0.589 1.31,-0.67 1.328,-0.75 1.345,-0.831 1.366,-0.921 1.389,-1.02 1.333,-0.995 1.27,-0.974 1.198,-0.956 1.127,-0.938 1.062,-0.922 1.002,-0.911 0.937,-0.897 0.873,-0.886 0.806,-0.877 0.74,-0.869 0.675,-0.862 0.609,-0.856 0.605,-0.776 0.6,-0.699 0.594,-0.625 0.587,-0.55 0.578,-0.476 0.567,-0.4 c -0.066,0.014 -0.132,0.028 -0.198,0.043 -0.066,0.015 -0.131,0.03 -0.197,0.043 -0.052,0.01 -0.105,0.021 -0.158,0.031 -0.053,0.01 -0.105,0.021 -0.158,0.032 -0.042,-0.065 -0.081,-0.131 -0.116,-0.198 -0.035,-0.068 -0.071,-0.136 -0.108,-0.203"
     id="path21071"
     style="fill:#ffffff;fill-opacity:1;fill-rule:nonzero;stroke:none" /></g><g
   transform="matrix(6.8295986,0,0,-6.8295986,168.23483,22.106229)"
   id="g21073"><path
     d="M 0,0 C 0.031,0.056 0.064,0.115 0.1,0.178 0.136,0.241 0.17,0.301 0.201,0.357 0.231,0.412 0.252,0.45 0.264,0.472 0.299,0.532 0.335,0.599 0.373,0.674 0.411,0.748 0.45,0.832 0.492,0.924 0.536,0.891 0.587,0.855 0.643,0.816 0.699,0.777 0.754,0.743 0.805,0.713 0.854,0.685 0.911,0.656 0.975,0.624 1.039,0.594 1.096,0.57 1.146,0.551 1.105,0.491 1.063,0.429 1.022,0.364 0.979,0.298 0.938,0.233 0.897,0.168 0.856,0.103 0.818,0.04 0.782,-0.021 0.746,-0.081 0.714,-0.137 0.684,-0.188 c 0.04,-0.026 0.085,-0.053 0.134,-0.082 0.048,-0.029 0.1,-0.059 0.153,-0.089 0.046,-0.027 0.095,-0.054 0.148,-0.082 0.052,-0.028 0.103,-0.055 0.153,-0.084 0.031,0.053 0.063,0.112 0.098,0.175 0.035,0.064 0.07,0.129 0.105,0.196 0.035,0.067 0.07,0.135 0.104,0.203 C 1.614,0.118 1.646,0.184 1.674,0.247 1.719,0.215 1.77,0.178 1.828,0.139 1.885,0.098 1.938,0.064 1.988,0.036 2.038,0.008 2.094,-0.022 2.158,-0.052 2.221,-0.083 2.279,-0.108 2.328,-0.127 2.254,-0.232 2.18,-0.344 2.108,-0.46 2.036,-0.576 1.954,-0.713 1.864,-0.871 1.796,-0.989 1.735,-1.099 1.681,-1.198 1.626,-1.297 1.575,-1.392 1.526,-1.484 1.478,-1.575 1.43,-1.664 1.384,-1.751 1.337,-1.839 1.288,-1.931 1.237,-2.03 c -0.104,0.082 -0.216,0.156 -0.335,0.224 -0.051,0.03 -0.104,0.056 -0.156,0.082 -0.053,0.023 -0.108,0.047 -0.163,0.069 0.04,0.054 0.087,0.122 0.138,0.202 0.052,0.079 0.102,0.161 0.153,0.244 0.049,0.083 0.097,0.162 0.141,0.238 0.043,0.074 0.078,0.135 0.105,0.181 -0.048,0.027 -0.096,0.056 -0.145,0.086 -0.049,0.03 -0.098,0.059 -0.147,0.087 C 0.782,-0.59 0.733,-0.562 0.681,-0.534 0.629,-0.506 0.579,-0.479 0.532,-0.454 0.505,-0.502 0.47,-0.564 0.428,-0.64 0.386,-0.716 0.341,-0.796 0.295,-0.882 0.249,-0.967 0.204,-1.051 0.161,-1.134 0.118,-1.218 0.082,-1.29 0.054,-1.352 c -0.05,0.04 -0.101,0.078 -0.154,0.112 -0.053,0.036 -0.108,0.069 -0.164,0.102 -0.068,0.038 -0.128,0.07 -0.18,0.094 -0.052,0.023 -0.103,0.046 -0.153,0.065 l 0.086,0.126 c 0.026,0.037 0.057,0.085 0.094,0.142 0.037,0.059 0.075,0.121 0.115,0.189 0.04,0.068 0.08,0.136 0.122,0.207 0.041,0.07 0.079,0.136 0.114,0.196 C -0.053,-0.096 -0.031,-0.056 0,0"
     id="path21075"
     style="fill:#ffffff;fill-opacity:1;fill-rule:nonzero;stroke:none" /></g></g>
</svg>